<?xml version="1.0" encoding="utf-8"?>
<!-- Generator: Adobe Illustrator 19.1.0, SVG Export Plug-In . SVG Version: 6.00 Build 0)  -->
<!DOCTYPE svg PUBLIC "-//W3C//DTD SVG 1.1//EN" "http://www.w3.org/Graphics/SVG/1.1/DTD/svg11.dtd">
<svg version="1.1" id="Lag_1" xmlns="http://www.w3.org/2000/svg" xmlns:xlink="http://www.w3.org/1999/xlink" x="0px" y="0px"
	 viewBox="-281 404.8900146 32 32" style="enable-background:new -281 404.8900146 32 32;" xml:space="preserve">
<style type="text/css">
	.st0{fill:none;}
</style>
<rect x="-281" y="404.8900146" class="st0" width="32" height="32"/>
<rect x="-281" y="404.8900146" class="st0" width="32" height="32"/>
<path d="M-254,406.8900146c-0.1470032-0.7579956-0.8950043-2-2-2h-19c-1.105011,0-1.8139954,1.2689819-2,2l-4,17.0100098v9.9910278
	c0,1.6569824,1.3429871,3,3,3h26c1.6569977,0,3-1.3430176,3-3v-9.9910278L-254,406.8900146z M-275,407.8900146
	c0-0.552002,0.447998-1,1-1h17c0.552002,0,1,0.4470215,1,1l4.6840057,15H-259c-1.0540161,0-1,1-1,1v4c0,0.552002-0.447998,1-1,1h-8
	c-0.552002,0-1-0.447998-1-1v-4c0,0,0-1-1-1h-7.7449951L-275,407.8900146z M-250.9989929,432.8900146c0,1.1049805-0.8960114,2-2,2
	h-24c-1.105011,0-2-0.8950195-2-2v-8h7v4c0,1.1049805,0.894989,2,2,2h10c1.1049805,0,2-0.8950195,2-2v-4h7V432.8900146z"/>
</svg>
