<?xml version="1.0" encoding="utf-8"?>
<!-- Generator: Adobe Illustrator 25.2.3, SVG Export Plug-In . SVG Version: 6.00 Build 0)  -->
<svg version="1.1" id="Layer_1" xmlns="http://www.w3.org/2000/svg" xmlns:xlink="http://www.w3.org/1999/xlink" x="0px" y="0px"
	 viewBox="0 0 1024 1024" style="enable-background:new 0 0 1024 1024;" xml:space="preserve">
<style type="text/css">
	.st0{fill:#737373;}
</style>
<path class="st0" d="M722.9439697,426.6240234c0,0,37.2480469-153.8720093,0-206.0160522
	c-37.2479858-52.1119995-52.1599731-86.8479614-134.0319824-111.6799927
	c-81.9679871-24.8479614-52.1119995-19.9199829-111.6799927-17.3759766
	c-59.5839844,2.4959717-109.2479858,34.7199707-109.2479858,52.0800171c0,0-37.2000122,2.4959717-52.0800171,17.407959
	c-14.8959961,14.9120483-39.7279968,84.3359985-39.7279968,101.7440186c0,17.4400024,12.4320068,134.0800171,24.8320007,158.8959961
	l-14.7680054,4.960022c-12.447998,143.9199829,49.5840149,161.3120117,49.5840149,161.3120117
	c22.3519897,134.0959473,44.70401,77.0079346,44.70401,111.7440186c0,34.6879883-22.3360291,22.3359375-22.3360291,22.3359375
	s-19.8079834,54.592041-69.4879761,74.4320068C239.1040039,816.2719727,42.368,922.960022,19.9839993,945.3439941
	C-2.4319999,967.7440186,0.096,1024,0.096,1024h1023.8040161c0,0,2.6300049-56.2559814-19.8000488-78.6560059
	c-22.4359741-22.367981-219.1239624-129.0560303-268.7879639-148.8800049
	c-49.632019-19.8399658-69.4400024-74.4320068-69.4400024-74.4320068s-22.3359985,12.3360596-22.3359985-22.3359375
	c0-34.7520752,22.3359985,22.3359375,44.7199707-111.7440186c0,0,62-17.3920288,49.632019-161.3120117L722.9439697,426.6240234z"/>
</svg>
