<svg width="382" height="382" style="width:382px;height:382px" xmlns="http://www.w3.org/2000/svg"><path fill="rgba(255,255,255,.7)" d="M272.14 66.055a148.98 148.98 0 0 1 51.602 192.58l-65.745-37.213a73.58 73.58 0 0 0-24.187-90.266zM328.44 280.254a163.878 163.878 0 0 1-211.84 56.762l43.978-79.02a73.58 73.58 0 0 0 90.266-24.186zM109.86 315.945a148.98 148.98 0 0 1-51.602-192.58l65.745 37.213a73.58 73.58 0 0 0 24.187 90.266zM53.56 101.746A163.878 163.878 0 0 1 265.4 44.984l-43.978 79.02a73.58 73.58 0 0 0-90.266 24.186z" stroke="#888" stroke-width="1.5"/><circle cx="191" cy="191" r="59.21" stroke="#888" stroke-width="1.5" fill="none"/></svg>