<svg xmlns="http://www.w3.org/2000/svg" viewBox="0 0 463 463"><linearGradient id="a" gradientUnits="userSpaceOnUse" x1="231.5" y1="451.738" x2="231.5" y2="11.242"><stop offset="0" stop-color="#00ba90"/><stop offset="1" stop-color="#00a1ff"/></linearGradient><path d="M159.5 208c13.143 0 25.447-5.171 34.646-14.561a7.501 7.501 0 0 1 10.715 10.498c-10.402 10.617-23.839 17.103-38.395 18.677C163.022 245.443 143.274 263 119.5 263c-4.142 0-7.5-3.357-7.5-7.5s3.358-7.5 7.5-7.5c15.536 0 28.554-10.961 31.745-25.554C120.119 218.384 96 191.715 96 159.5a7.5 7.5 0 0 1 7.5-7.5 7.5 7.5 0 0 1 7.5 7.5c0 26.743 21.757 48.5 48.5 48.5zm16 72c-35.014 0-63.5 28.486-63.5 63.5 0 .362.013.725.019 1.088A63.681 63.681 0 0 0 103.5 344c-4.142 0-7.5 3.357-7.5 7.5s3.358 7.5 7.5 7.5c26.743 0 48.5 21.757 48.5 48.5a7.5 7.5 0 0 0 7.5 7.5 7.5 7.5 0 0 0 7.5-7.5c0-26.611-16.462-49.437-39.731-58.867A49.352 49.352 0 0 1 127 343.5c0-26.743 21.757-48.5 48.5-48.5 4.142 0 7.5-3.357 7.5-7.5s-3.358-7.5-7.5-7.5zM383 151.5a7.5 7.5 0 0 0-7.5-7.5 7.5 7.5 0 0 0-7.5 7.5c0 26.743-21.757 48.5-48.5 48.5-13.143 0-25.447-5.171-34.646-14.561a7.5 7.5 0 0 0-10.715 10.498c10.402 10.617 23.839 17.103 38.395 18.677C315.978 237.443 335.726 255 359.5 255c4.142 0 7.5-3.357 7.5-7.5s-3.358-7.5-7.5-7.5c-15.536 0-28.554-10.961-31.745-25.554C358.881 210.384 383 183.715 383 151.5zM335.5 328c-2.89 0-5.73.212-8.519.588.006-.363.019-.726.019-1.088 0-35.014-28.486-63.5-63.5-63.5-4.142 0-7.5 3.357-7.5 7.5s3.358 7.5 7.5 7.5c26.743 0 48.5 21.757 48.5 48.5a49.36 49.36 0 0 1-.269 5.133C288.462 342.063 272 364.889 272 391.5a7.5 7.5 0 0 0 7.5 7.5 7.5 7.5 0 0 0 7.5-7.5c0-26.743 21.757-48.5 48.5-48.5 4.142 0 7.5-3.357 7.5-7.5s-3.358-7.5-7.5-7.5zm92.287-68.525C435.128 270.087 439 282.466 439 295.5c0 23.088-12.587 44.242-32.516 55.396.343 2.852.516 5.73.516 8.604 0 31.143-20.315 58.678-49.79 68.063C344.389 449.505 321.035 463 295.5 463c-27.995 0-52.269-16.181-64-39.674-11.731 23.493-36.005 39.674-64 39.674-25.535 0-48.889-13.495-61.71-35.437C76.315 418.179 56 390.644 56 359.5c0-2.874.173-5.752.516-8.604C36.587 339.742 24 318.588 24 295.5c0-13.034 3.872-25.413 11.213-36.025C28.149 249.241 24 236.848 24 223.5a63.325 63.325 0 0 1 18.875-45.156A62.966 62.966 0 0 1 40 159.5c0-30.874 22.152-56.659 51.394-62.329A47.357 47.357 0 0 1 88 79.5c0-19.557 11.883-36.387 28.806-43.661C145.001 13.383 175.838 0 199.5 0c13.153 0 24.817 6.468 32 16.384C238.683 6.468 250.347 0 263.5 0c23.662 0 54.499 13.383 82.694 35.839C363.117 43.113 375 59.943 375 79.5c0 6.128-1.159 12.1-3.394 17.671C400.848 102.841 423 128.626 423 159.5c0 6.418-.966 12.736-2.875 18.844A63.325 63.325 0 0 1 439 223.5c0 13.348-4.149 25.741-11.213 35.975zM224 39.5c0-13.51-10.991-24.5-24.5-24.5-15.046 0-33.891 6.631-53.033 18.311 13.657 3.285 25.516 12.559 31.782 25.462a7.498 7.498 0 0 1-3.47 10.022 7.498 7.498 0 0 1-10.023-3.47C159.267 54.021 148.057 47 135.5 47c-4.053 0-7.932.752-11.514 2.114a7.41 7.41 0 0 1-1.308.527C111.116 54.625 103 66.131 103 79.5c0 5.921 1.577 11.627 4.579 16.645C140.698 98.257 167 125.858 167 159.5a7.5 7.5 0 0 1-7.5 7.5 7.5 7.5 0 0 1-7.5-7.5c0-26.743-21.757-48.5-48.5-48.5S55 132.757 55 159.5c0 6.244 1.2 12.369 3.568 18.205a7.5 7.5 0 0 1-2.14 8.574C45.352 195.536 39 209.104 39 223.5c0 26.743 21.757 48.5 48.5 48.5 4.142 0 7.5 3.357 7.5 7.5s-3.358 7.5-7.5 7.5c-16.064 0-30.743-6.008-41.939-15.879C41.256 278.486 39 286.801 39 295.5c0 19.126 11.32 36.518 28.839 44.306a7.501 7.501 0 0 1 4.302 8.35A56.978 56.978 0 0 0 71 359.5c0 25.461 17.19 47.869 41.803 54.493a7.5 7.5 0 0 1 4.688 3.751C127.309 436.406 146.471 448 167.5 448c31.154 0 56.5-25.346 56.5-56.5 0-25.473-17.2-47.884-41.827-54.501a7.5 7.5 0 1 1 3.892-14.486c15.464 4.155 28.61 13.235 37.935 25.266V167.5c0-13.51-10.991-24.5-24.5-24.5-4.142 0-7.5-3.357-7.5-7.5s3.358-7.5 7.5-7.5c9.25 0 17.761 3.205 24.5 8.551V39.5zm144 240a7.5 7.5 0 0 1 7.5-7.5c26.743 0 48.5-21.757 48.5-48.5 0-14.396-6.352-27.964-17.427-37.221a7.5 7.5 0 0 1-2.14-8.574A48.224 48.224 0 0 0 408 159.5c0-26.743-21.757-48.5-48.5-48.5S311 132.757 311 159.5a7.5 7.5 0 0 1-7.5 7.5 7.5 7.5 0 0 1-7.5-7.5c0-33.642 26.302-61.243 59.421-63.355C358.423 91.127 360 85.421 360 79.5c0-13.37-8.117-24.876-19.681-29.86a7.409 7.409 0 0 1-1.305-.526A32.321 32.321 0 0 0 327.5 47c-12.557 0-23.767 7.021-29.256 18.325a7.499 7.499 0 0 1-10.023 3.47 7.498 7.498 0 0 1-3.47-10.022c6.266-12.903 18.125-22.178 31.782-25.462C297.391 21.631 278.546 15 263.5 15 249.991 15 239 25.99 239 39.5v65.051C245.739 99.205 254.25 96 263.5 96c4.142 0 7.5 3.357 7.5 7.5s-3.358 7.5-7.5 7.5c-13.509 0-24.5 10.99-24.5 24.5v247.717c0 .698-.103 1.371-.281 2.012.183 2.071.281 4.162.281 6.271 0 31.154 25.346 56.5 56.5 56.5 21.029 0 40.191-11.594 50.009-30.255a7.497 7.497 0 0 1 4.688-3.751C374.81 407.37 392 384.962 392 359.501c0-3.81-.384-7.626-1.141-11.344a7.5 7.5 0 0 1 4.302-8.35C412.68 332.018 424 314.626 424 295.5c0-8.699-2.255-17.014-6.561-24.379C406.243 280.992 391.564 287 375.5 287a7.5 7.5 0 0 1-7.5-7.5z" fill="url(#a)"/></svg>